<svg id="Capa_1" data-name="Capa 1" xmlns="http://www.w3.org/2000/svg" viewBox="0 0 857.82 550.27"><defs><style>.cls-1{fill:#fff;}</style></defs><title>moratlogobrown</title><path class="cls-1" d="M.12,274.08c0-37.27-.79-74.56.28-111.8.71-24.53,13.81-42.38,36-53.18,8-3.89,16.8-5.27,25.23-7.81C75.36,97.16,89.22,93.53,103,89.66s27.82-7.82,41.72-11.78c8.79-2.51,17.54-5.18,26.33-7.66,12.08-3.41,24.2-6.66,36.28-10.06,10.67-3,21.29-6.18,32-9.18,8.93-2.51,17.93-4.81,26.87-7.3,11.64-3.25,23.24-6.6,34.87-9.89,12.37-3.51,24.76-7,37.13-10.5,10.62-3,21.19-6.23,31.82-9.23,10.33-2.91,20.74-5.57,31.06-8.52,5-1.42,9.83-3.23,14.91-4.26,11.94-2.43,23.5-1.26,35.13,2.45,12,3.84,24.27,7.17,36.53,10.32,10.05,2.58,20,5.75,29.94,8.59,10.64,3,21.32,5.93,32,9,12,3.44,24,7,36.09,10.46s24.2,6.51,36.22,10.05c16.8,5,33.75,9.35,50.52,14.41s33.54,9.39,50.31,14.1C735,84.1,747.21,87.71,759.5,91.16c13.83,3.88,27.7,7.6,41.53,11.5,11.19,3.15,22.57,5.81,32,13.36,10.67,8.56,18.22,19.11,22.08,32.34,2.09,7.18,2.58,14.45,2.57,21.85q-.06,105.67,0,211.34c0,19-6.12,35.46-20.28,48.57-7.9,7.31-17.24,11.81-27.58,14.6-12.45,3.36-24.79,7.1-37.2,10.59-14.92,4.2-29.87,8.27-44.79,12.47-14,4-28,8.06-42.08,12-10.24,2.89-20.53,5.58-30.77,8.48-15.12,4.28-30.19,8.7-45.3,13-8.9,2.54-17.84,5-26.75,7.44q-15.64,4.37-31.27,8.78-13.37,3.77-26.72,7.6l-32.25,9.16-30.34,8.56c-7.06,2-14.06,4.2-21.18,5.94a46.87,46.87,0,0,1-22.62.26c-18.4-4.68-36.59-10.19-54.89-15.3-12.27-3.43-24.59-6.65-36.85-10.12-13.6-3.85-27.13-7.92-40.72-11.8-13.05-3.72-26.15-7.29-39.22-11-15.68-4.43-31.33-9-47-13.38-12-3.38-24-6.56-35.9-10-15.28-4.42-30.6-8.69-45.89-13.09q-17.88-5.15-35.84-10c-8.93-2.42-17.81-5-26.7-7.54-5.42-1.55-11-2.65-16.2-4.79-19-7.86-31.44-21.67-36.93-41.65A70.24,70.24,0,0,1,0,381.46q0-53.69,0-107.38Zm819.36.83q0-37.33,0-74.65c0-11.82.09-23.64-.07-35.45-.13-9.51-7.23-19.41-16.37-21.75-5.13-1.32-10.19-2.91-15.29-4.38-10.42-3-20.83-6-31.25-9-10.64-3-21.3-6-31.94-9-10-2.84-19.93-5.79-29.93-8.6-9.13-2.56-18.3-4.94-27.43-7.51-10.41-2.93-20.74-6.12-31.18-8.93-12.23-3.29-24.39-6.83-36.61-10.15s-24.07-6.93-36.12-10.33c-11.87-3.36-23.77-6.59-35.62-10C514.42,61.45,501.24,57.47,488,53.7c-17.41-5-35-9.34-52.27-14.72A22.6,22.6,0,0,0,422,39c-7.19,2.34-14.48,4.28-21.77,6.24-13.53,3.64-26.94,7.7-40.47,11.36-10.19,2.76-20.31,5.89-30.46,8.84-16.89,4.91-33.91,9.37-50.85,14.13-16.73,4.7-33.43,9.54-50.14,14.34-8.13,2.33-16.24,4.74-24.38,7-9.13,2.57-18.31,5-27.44,7.57-11.82,3.35-23.6,6.86-35.42,10.17-10.75,3-21.56,5.79-32.31,8.81-12.06,3.38-24.08,6.91-36.12,10.37-6.52,1.87-13.09,3.58-19.55,5.64-7.23,2.3-15,11.73-14.94,22.62q.12,106.35,0,212.7a75.9,75.9,0,0,0,.17,7.83c.86,8.28,7.09,17.75,16.22,20.19q10.17,2.72,20.29,5.62c15,4.31,29.94,8.77,45,13,15.45,4.36,31,8.45,46.41,12.81,20.1,5.67,40.14,11.53,60.23,17.22,12,3.41,24.16,6.59,36.21,10s23.8,7,35.74,10.39c17.06,4.81,34.17,9.43,51.24,14.22C363.5,494,377.35,498,391.22,502c7.79,2.23,15.56,4.52,23.38,6.62,4.23,1.14,8.24,2.9,12.8,3.14,8,.43,15-3.33,22.4-5.1,10.21-2.44,20.2-5.78,30.32-8.62,15.34-4.32,30.71-8.52,46.05-12.82,11.08-3.1,22.13-6.29,33.2-9.4,16.3-4.58,32.62-9.05,48.9-13.69,11.81-3.36,23.54-7,35.35-10.35,15.53-4.39,31.12-8.57,46.66-12.92q31.31-8.75,62.6-17.62c14.33-4.05,28.68-8.07,43-12.29,3.66-1.08,7.61-1.52,10.93-3.51,8.55-5.13,12.76-12.71,12.74-22.8C819.43,346.72,819.48,310.82,819.48,274.91Z" transform="translate(0.16)"/><path class="cls-1" d="M186.75,262.34c-1.57,6-3.16,11.9-4.71,17.85-3,11.63-6.18,23.25-9,34.92-.9,3.68-2.82,5-6.48,4.86-6.36-.2-12.73-.13-19.09,0-3.12.05-4.78-1.23-5.55-4.27-4.1-16.16-8.31-32.3-12.49-48.44a13.6,13.6,0,0,0-1.87-4.51q0,1.66,0,3.33,0,45.5,0,91c0,4.46-.45,4.92-4.82,4.92h-22.5c-4.18,0-4.61-.45-4.61-4.76,0-22.16-.19-44.32.13-66.47.08-5.23-2.18-8.32-6-10.83a59,59,0,0,0-6.37-3.21c-.71-.35-1.53-.56-1.58-1.56s.88-1.15,1.57-1.46c1.55-.7,3.14-1.34,4.61-2.18,5.09-2.9,8-6.51,7.84-13.2-.5-21.46-.19-42.94-.18-64.42,0-5.1.49-5.59,5.57-5.59h33.06c5.29,0,5.5.09,6.72,5.1q7.66,31.59,15.25,63.19c.21.87.49,1.72,1,3.6,1.84-7.37,3.44-13.78,5.05-20.19,4-16,8.08-31.89,11.94-47.88.71-2.93,2.14-3.87,5-3.85,11.82.08,23.63,0,35.45,0,3.89,0,4.42.53,4.43,4.6,0,14.77,0,29.54,0,44.31,0,7.5.66,15,.08,22.48-.53,6.9,3.72,9.67,8.52,12.46,1.78,1,5.09.8,5.21,2.94.14,2.43-3.28,2-5,3.14a58.16,58.16,0,0,0-5.8,4.15,8.57,8.57,0,0,0-3.1,7.13c.11,22,.05,44.08.06,66.13,0,6.35,0,6.35-6.47,6.35H192.48c-4.82,0-5.09-.26-5.09-5q0-45.68,0-91.35,0-1.62,0-3.24Z" transform="translate(0.16)"/><path class="cls-1" d="M451.54,292.53c0,4.1,0,7.82,0,11.55q0,26.59,0,53.17c0,4.13-.56,4.71-4.71,4.73-8.75,0-17.5-.07-26.24.05-3.22,0-4.41-1.16-4.39-4.41.08-21.13-.36-42.27.2-63.39.24-9.13-3.56-14.21-11.54-17.19-1.07-.4-2.76-.45-2.77-2s1.79-1.44,2.79-2c1.47-.83,3.12-1.38,4.53-2.3,4.15-2.69,6.68-5.85,6.57-11.53-.39-21.69-.17-43.4-.17-65.1,0-5.27.93-6.22,6.08-6.22,17.72,0,35.45,0,53.17,0a60.47,60.47,0,0,1,15.82,2.07c10.25,2.81,16.43,9.61,19.08,19.75A64.1,64.1,0,0,1,512,225.51c.06,10.45,0,20.9,0,31.36,0,15.12-7.18,26-21.24,31.68-2.36,1-1.81,1.91-1,3.48q15,29.2,30,58.43c1,2,2.06,4,3.05,6.07,1.56,3.21.31,5.39-3.35,5.43-9.54.09-19.09,0-28.63,0-2.69,0-3.3-2.17-4.19-3.87-5.92-11.37-11.73-22.8-17.58-34.2q-7.53-14.68-15.1-29.34A3,3,0,0,0,451.54,292.53Zm.57-52.73c0,5.68.08,11.35,0,17,0,2.1.33,3.06,2.74,3,5-.18,10,0,15-.06,4.54-.07,6.72-1.8,6.81-6.27.19-9.07.13-18.16-.14-27.23-.12-4-1.82-5.41-5.87-5.5-5.22-.11-10.45.07-15.66-.09-2.21-.07-3,.47-2.89,2.8C452.23,228.9,452.11,234.35,452.11,239.8Z" transform="translate(0.16)"/><path class="cls-1" d="M364.3,245c0,5.23.25,10.47-.09,15.67a9.55,9.55,0,0,0,3.83,8.54,31.17,31.17,0,0,0,7.24,4.42c1.05.48,2.89.31,2.82,1.91-.06,1.43-1.83,1.47-2.88,2-2.95,1.48-5.87,3-8.25,5.33a7.46,7.46,0,0,0-2.52,5.67c.05,10.33-.18,20.67-.13,31,.12,24-18.05,42.33-42.07,42.48-9.27.06-18.41-.28-26.92-4.49-13.65-6.75-20.94-17.93-22.7-32.89-1.32-11.21-.74-22.47-.44-33.68.16-6-2.51-9.33-7.1-11.94a54.8,54.8,0,0,0-5.27-2.35c-.64-.28-1.34-.56-1.45-1.31-.16-1.07.81-1.26,1.5-1.53a26.36,26.36,0,0,0,10-6.22,7.52,7.52,0,0,0,2.16-5.46c.18-12.14-.6-24.3.49-36.44A41.21,41.21,0,0,1,308.06,189c10.6-1.3,21.15-1.3,31.14,3.07,15.9,7,24,19.45,25,36.61.32,5.43,0,10.9,0,16.36ZM329.45,275.9h0q0-12.43,0-24.87c0-7,.37-14.1-.05-21.11-.48-8-2.64-9.79-10.47-10.5-5.83-.53-10,1.83-11.18,6.52a28.88,28.88,0,0,0-.87,6.72c-.07,16.24,0,32.49,0,48.73,0,12.15-.12,24.31.05,36.46.06,4.27.17,8.89,4.34,11.6a11.59,11.59,0,0,0,18.14-8.93c0-.57.07-1.13.07-1.7Q329.45,297.37,329.45,275.9Z" transform="translate(0.16)"/><path class="cls-1" d="M603.34,248.69c-3.5,15.21-5.71,30.47-8.08,45.71-3.3,21.31-6.49,42.63-9.7,64-.38,2.5-1.43,3.73-4.22,3.68-8.52-.15-17,0-25.56-.06-4.61,0-5.62-1.32-4.76-5.89,4.33-23.2,8.62-46.4,13-69.58.48-2.51,0-4-2.17-5.38a38,38,0,0,0-6.49-3.66c-1.1-.43-2.8-.63-2.72-2.15.07-1.3,1.68-1.33,2.7-1.69,5.56-2,10-5.34,12.58-10.77,1.68-3.54,1.79-7.48,2.5-11.25Q576,222,581.26,192.32c.6-3.43,2.23-4.54,5.48-4.51,10.68.09,21.36,0,32,0,4.32,0,5,.6,5.74,5,4,22,8.14,44,11.82,66,1.15,6.88,5,10.89,10.74,13.77.71.35,1.51.55,2.18,1,1,.59,2.75.42,2.64,2.14-.09,1.42-1.62,1.43-2.58,1.87-8.65,4-8.6,4-6.82,13.52q6,32.29,12,64.61c1.06,5.75.52,6.34-5.29,6.34-8.07,0-16.13-.11-24.2.07-3.29.07-4.71-1.19-5.1-4.38-4-32.56-9.73-64.87-14.55-97.31C604.73,256.47,604,252.58,603.34,248.69Z" transform="translate(0.16)"/><path class="cls-1" d="M730.66,188.31q19.6,0,39.19,0c5,0,5.95.93,6,5.94,0,6.81.1,13.63.08,20.44,0,4.77-1,5.86-5.74,6q-9.71.19-19.42,0c-2.14,0-2.7.68-2.69,2.72q.11,19.77,0,39.53a6.34,6.34,0,0,0,2.46,5.32,27.32,27.32,0,0,0,9.35,5.44c.87.26,2,.58,2,1.58s-1,1.37-1.94,1.7a33.83,33.83,0,0,0-8.81,5.08,7.38,7.38,0,0,0-3,6.43c.09,22.49.05,45,0,67.48,0,5.93-.16,6.07-6.11,6.07q-12.1,0-24.2,0c-5.26,0-5.41-.17-5.41-5.32q0-24.88,0-49.76c0-5.79-.3-11.59-.09-17.37a8.63,8.63,0,0,0-3.12-7.13,31.19,31.19,0,0,0-8.36-5.16c-1-.48-2.84-.36-2.69-2.05.14-1.54,1.87-1.35,2.94-1.87,1.22-.59,2.52-1.06,3.67-1.76,5.13-3.09,8.23-6.89,7.84-13.69-.65-11.32-.27-22.71-.11-34.07,0-2.65-.79-3.26-3.27-3.18-5.9.17-11.81.08-17.72.08-6.12,0-6.94-.78-7-6.78q0-9.54,0-19.08c0-5.46,1-6.5,6.62-6.52,13.18,0,26.36,0,39.53,0Z" transform="translate(0.16)"/></svg>